<?xml version="1.0" encoding="UTF-8"?>
<svg version="1.1" xmlns="http://www.w3.org/2000/svg" width="2000" height="2000">
<path d="M0 0 C40.59 0 81.18 0 123 0 C123 10.23 123 20.46 123 31 C133.23 31 143.46 31 154 31 C154 122.74 154 214.48 154 309 C143.77 309 133.54 309 123 309 C123 329.46 123 349.92 123 371 C112.77 371 102.54 371 92 371 C92 381.23 92 391.46 92 402 C81.77 402 71.54 402 61 402 C61 381.54 61 361.08 61 340 C71.23 340 81.46 340 92 340 C92 319.54 92 299.08 92 278 C102.23 278 112.46 278 123 278 C123 206.72 123 135.44 123 62 C112.77 62 102.54 62 92 62 C92 51.77 92 41.54 92 31 C61.64 31 31.28 31 0 31 C0 20.77 0 10.54 0 0 Z " fill="#000000" transform="translate(1472,778)"/>
<path d="M0 0 C20.13 0 40.26 0 61 0 C61 10.23 61 20.46 61 31 C162.97 31 264.94 31 370 31 C370 41.23 370 51.46 370 62 C257.8 62 145.6 62 30 62 C30 51.77 30 41.54 30 31 C20.1 31 10.2 31 0 31 C0 20.77 0 10.54 0 0 Z " fill="#000000" transform="translate(793,1550)"/>
<path d="M0 0 C122.1 0 244.2 0 370 0 C370 10.23 370 20.46 370 31 C247.9 31 125.8 31 0 31 C0 20.77 0 10.54 0 0 Z " fill="#000000" transform="translate(793,253)"/>
<path d="M0 0 C10.23 0 20.46 0 31 0 C31 91.74 31 183.48 31 278 C20.77 278 10.54 278 0 278 C0 206.72 0 135.44 0 62 C-20.46 62 -40.92 62 -62 62 C-62 51.77 -62 41.54 -62 31 C-41.54 31 -21.08 31 0 31 C0 20.77 0 10.54 0 0 Z " fill="#000000" transform="translate(1225,1519)"/>
<path d="M0 0 C10.23 0 20.46 0 31 0 C31 91.74 31 183.48 31 278 C20.77 278 10.54 278 0 278 C0 267.77 0 257.54 0 247 C-20.46 247 -40.92 247 -62 247 C-62 236.77 -62 226.54 -62 216 C-41.54 216 -21.08 216 0 216 C0 144.72 0 73.44 0 0 Z " fill="#000000" transform="translate(484,593)"/>
<path d="M0 0 C20.46 0 40.92 0 62 0 C62 10.23 62 20.46 62 31 C51.77 31 41.54 31 31 31 C31 112.51 31 194.02 31 278 C20.77 278 10.54 278 0 278 C0 186.26 0 94.52 0 0 Z " fill="#000000" transform="translate(731,1519)"/>
<path d="M0 0 C10.23 0 20.46 0 31 0 C31 81.51 31 163.02 31 247 C41.23 247 51.46 247 62 247 C62 257.23 62 267.46 62 278 C41.54 278 21.08 278 0 278 C0 186.26 0 94.52 0 0 Z " fill="#000000" transform="translate(1410,562)"/>
<path d="M0 0 C10.23 0 20.46 0 31 0 C31 81.51 31 163.02 31 247 C20.77 247 10.54 247 0 247 C0 165.49 0 83.98 0 0 Z " fill="#000000" transform="translate(360,902)"/>
<path d="M0 0 C10.23 0 20.46 0 31 0 C31 40.59 31 81.18 31 123 C20.77 123 10.54 123 0 123 C0 82.41 0 41.82 0 0 Z " fill="#000000" transform="translate(1379,439)"/>
<path d="M0 0 C20.46 0 40.92 0 62 0 C62 9.9 62 19.8 62 30 C72.23 30 82.46 30 93 30 C93 40.23 93 50.46 93 61 C72.54 61 52.08 61 31 61 C31 50.77 31 40.54 31 30 C20.77 30 10.54 30 0 30 C0 20.1 0 10.2 0 0 Z " fill="#000000" transform="translate(638,1458)"/>
<path d="M0 0 C20.46 0 40.92 0 62 0 C62 9.9 62 19.8 62 30 C72.23 30 82.46 30 93 30 C93 40.23 93 50.46 93 61 C72.54 61 52.08 61 31 61 C31 50.77 31 40.54 31 30 C20.77 30 10.54 30 0 30 C0 20.1 0 10.2 0 0 Z " fill="#000000" transform="translate(453,1211)"/>
<path d="M0 0 C30.36 0 60.72 0 92 0 C92 10.23 92 20.46 92 31 C71.87 31 51.74 31 31 31 C31 40.9 31 50.8 31 61 C20.77 61 10.54 61 0 61 C0 40.87 0 20.74 0 0 Z " fill="#000000" transform="translate(1441,1180)"/>
<path d="M0 0 C10.23 0 20.46 0 31 0 C31 30.69 31 61.38 31 93 C20.77 93 10.54 93 0 93 C0 62.31 0 31.62 0 0 Z " fill="#000000" transform="translate(576,1334)"/>
<path d="M0 0 C10.23 0 20.46 0 31 0 C31 30.69 31 61.38 31 93 C20.77 93 10.54 93 0 93 C0 62.31 0 31.62 0 0 Z " fill="#000000" transform="translate(1410,1241)"/>
<path d="M0 0 C10.23 0 20.46 0 31 0 C31 30.69 31 61.38 31 93 C20.77 93 10.54 93 0 93 C0 62.31 0 31.62 0 0 Z " fill="#000000" transform="translate(515,500)"/>
<path d="M0 0 C20.46 0 40.92 0 62 0 C62 20.46 62 40.92 62 62 C51.77 62 41.54 62 31 62 C31 51.77 31 41.54 31 31 C20.77 31 10.54 31 0 31 C0 20.77 0 10.54 0 0 Z " fill="#000000" transform="translate(1286,346)"/>
<path d="M0 0 C20.13 0 40.26 0 61 0 C61 10.23 61 20.46 61 31 C50.77 31 40.54 31 30 31 C30 40.9 30 50.8 30 61 C20.1 61 10.2 61 0 61 C0 40.87 0 20.74 0 0 Z " fill="#000000" transform="translate(546,439)"/>
<path d="M0 0 C10.23 0 20.46 0 31 0 C31 20.46 31 40.92 31 62 C20.77 62 10.54 62 0 62 C0 41.54 0 21.08 0 0 Z " fill="#000000" transform="translate(1379,1334)"/>
<path d="M0 0 C10.23 0 20.46 0 31 0 C31 20.46 31 40.92 31 62 C20.77 62 10.54 62 0 62 C0 41.54 0 21.08 0 0 Z " fill="#000000" transform="translate(391,840)"/>
<path d="M0 0 C20.46 0 40.92 0 62 0 C62 10.23 62 20.46 62 31 C41.54 31 21.08 31 0 31 C0 20.77 0 10.54 0 0 Z " fill="#000000" transform="translate(1163,284)"/>
<path d="M0 0 C20.46 0 40.92 0 62 0 C62 10.23 62 20.46 62 31 C41.54 31 21.08 31 0 31 C0 20.77 0 10.54 0 0 Z " fill="#000000" transform="translate(731,284)"/>
<path d="M0 0 C20.13 0 40.26 0 61 0 C61 10.23 61 20.46 61 31 C40.87 31 20.74 31 0 31 C0 20.77 0 10.54 0 0 Z " fill="#000000" transform="translate(1225,315)"/>
<path d="M0 0 C9.9 0 19.8 0 30 0 C30 20.46 30 40.92 30 62 C20.1 62 10.2 62 0 62 C0 41.54 0 21.08 0 0 Z " fill="#000000" transform="translate(546,1272)"/>
<path d="M0 0 C10.23 0 20.46 0 31 0 C31 10.23 31 20.46 31 31 C20.77 31 10.54 31 0 31 C0 20.77 0 10.54 0 0 Z " fill="#000000" transform="translate(1286,1828)"/>
<path d="M0 0 C10.23 0 20.46 0 31 0 C31 10.23 31 20.46 31 31 C20.77 31 10.54 31 0 31 C0 20.77 0 10.54 0 0 Z " fill="#000000" transform="translate(669,1828)"/>
<path d="M0 0 C10.23 0 20.46 0 31 0 C31 10.23 31 20.46 31 31 C20.77 31 10.54 31 0 31 C0 20.77 0 10.54 0 0 Z " fill="#000000" transform="translate(700,1797)"/>
<path d="M0 0 C10.23 0 20.46 0 31 0 C31 10.23 31 20.46 31 31 C20.77 31 10.54 31 0 31 C0 20.77 0 10.54 0 0 Z " fill="#000000" transform="translate(1317,1427)"/>
<path d="M0 0 C10.23 0 20.46 0 31 0 C31 10.23 31 20.46 31 31 C20.77 31 10.54 31 0 31 C0 20.77 0 10.54 0 0 Z " fill="#000000" transform="translate(607,1427)"/>
<path d="M0 0 C10.23 0 20.46 0 31 0 C31 10.23 31 20.46 31 31 C20.77 31 10.54 31 0 31 C0 20.77 0 10.54 0 0 Z " fill="#000000" transform="translate(1348,1396)"/>
<path d="M0 0 C10.23 0 20.46 0 31 0 C31 10.23 31 20.46 31 31 C20.77 31 10.54 31 0 31 C0 20.77 0 10.54 0 0 Z " fill="#000000" transform="translate(422,1180)"/>
<path d="M0 0 C10.23 0 20.46 0 31 0 C31 10.23 31 20.46 31 31 C20.77 31 10.54 31 0 31 C0 20.77 0 10.54 0 0 Z " fill="#000000" transform="translate(391,1149)"/>
<path d="M0 0 C10.23 0 20.46 0 31 0 C31 10.23 31 20.46 31 31 C20.77 31 10.54 31 0 31 C0 20.77 0 10.54 0 0 Z " fill="#000000" transform="translate(1348,408)"/>
<path d="M0 0 C10.23 0 20.46 0 31 0 C31 10.23 31 20.46 31 31 C20.77 31 10.54 31 0 31 C0 20.77 0 10.54 0 0 Z " fill="#000000" transform="translate(607,408)"/>
<path d="M0 0 C10.23 0 20.46 0 31 0 C31 10.23 31 20.46 31 31 C20.77 31 10.54 31 0 31 C0 20.77 0 10.54 0 0 Z " fill="#000000" transform="translate(638,377)"/>
<path d="M0 0 C10.23 0 20.46 0 31 0 C31 10.23 31 20.46 31 31 C20.77 31 10.54 31 0 31 C0 20.77 0 10.54 0 0 Z " fill="#000000" transform="translate(669,346)"/>
<path d="M0 0 C10.23 0 20.46 0 31 0 C31 10.23 31 20.46 31 31 C20.77 31 10.54 31 0 31 C0 20.77 0 10.54 0 0 Z " fill="#000000" transform="translate(700,315)"/>
<path d="M0 0 C9.9 0 19.8 0 30 0 C30 10.23 30 20.46 30 31 C20.1 31 10.2 31 0 31 C0 20.77 0 10.54 0 0 Z " fill="#000000" transform="translate(1256,1797)"/>
<path d="M0 0 C9.9 0 19.8 0 30 0 C30 10.23 30 20.46 30 31 C20.1 31 10.2 31 0 31 C0 20.77 0 10.54 0 0 Z " fill="#000000" transform="translate(1256,1488)"/>
<path d="M0 0 C10.23 0 20.46 0 31 0 C31 9.9 31 19.8 31 30 C20.77 30 10.54 30 0 30 C0 20.1 0 10.2 0 0 Z " fill="#000000" transform="translate(1286,1458)"/>
</svg>
